<?xml version="1.0" standalone="no"?>
<!DOCTYPE svg PUBLIC "-//W3C//DTD SVG 20010904//EN"
 "http://www.w3.org/TR/2001/REC-SVG-20010904/DTD/svg10.dtd">
<svg version="1.0" xmlns="http://www.w3.org/2000/svg"
 width="920.000000pt" height="512.000000pt" viewBox="0 0 920.000000 512.000000"
 preserveAspectRatio="xMidYMid meet">

<g transform="translate(0.000000,512.000000) scale(0.100000,-0.100000)"
fill="#000000" stroke="none">
<path d="M2518 4470 c-78 -23 -139 -92 -153 -172 -11 -59 18 -139 65 -182 23
-20 53 -42 68 -48 17 -6 107 -10 243 -9 l216 2 179 -538 179 -538 5 -590 c5
-535 8 -595 24 -645 75 -228 230 -381 449 -445 31 -9 103 -20 159 -24 57 -5
87 -9 68 -10 -86 -3 -195 -84 -241 -177 -35 -70 -35 -198 0 -268 119 -241 457
-242 572 -1 70 146 15 327 -126 409 -24 14 -67 30 -97 35 -33 5 245 9 737 9
435 0 769 -4 744 -8 -96 -16 -185 -84 -230 -176 -20 -40 -24 -64 -24 -134 0
-70 4 -94 24 -134 119 -241 457 -242 572 -1 24 50 29 73 29 135 0 62 -5 85
-29 135 -45 95 -126 158 -222 174 -44 7 -27 9 101 10 l155 1 -3 210 -3 210
-1004 0 c-677 0 -1020 3 -1054 11 -68 14 -123 57 -152 115 -20 43 -23 64 -24
179 l0 130 1051 5 1051 5 42 29 c27 19 52 49 68 80 20 40 788 1731 810 1784 4
9 -336 12 -1680 12 l-1684 0 -18 63 c-55 198 -187 329 -360 357 -72 12 -468
12 -507 0z m1629 -3447 c78 -95 -63 -224 -149 -138 -34 33 -42 78 -23 120 33
69 123 78 172 18z m1600 0 c78 -95 -63 -224 -149 -138 -34 33 -42 78 -23 120
33 69 123 78 172 18z"/>
</g>
</svg>
